# Blender v3.0.0 OBJ File: ''
# www.blender.org
mtllib walls.mtl
o Plane.002_Plane.012
v -13.056340 9.410723 -13.089926
v -13.056339 -0.234502 -13.089926
v -13.056340 9.410723 13.106245
v -13.056339 -0.234502 13.106245
v 13.168007 9.410715 -13.089926
v 13.168007 -0.234509 -13.089926
v 13.168007 9.410715 13.103776
v 13.168007 -0.234509 13.103776
vt 1.000000 0.000000
vt 0.000000 0.000000
vt 0.000000 1.000000
vt 1.000000 0.000000
vt 0.000000 0.000000
vt 1.000000 0.000000
vt 0.000000 0.000000
vt 1.000000 1.000000
vn 1.0000 0.0000 0.0000
vn 0.0000 0.0000 1.0000
vn -1.0000 0.0000 0.0000
vn -0.0000 -1.0000 0.0000
usemtl None
s off
f 2/1/1 1/2/1 3/3/1
f 2/1/2 6/4/2 5/5/2
f 5/5/3 6/4/3 8/6/3
f 7/7/4 3/3/4 1/2/4
f 2/1/1 3/3/1 4/8/1
f 2/1/2 5/5/2 1/2/2
f 5/5/3 8/6/3 7/7/3
f 7/7/4 1/2/4 5/5/4
